<?xml version="1.0" standalone="no"?>
<!DOCTYPE svg PUBLIC "-//W3C//DTD SVG 20010904//EN"
 "http://www.w3.org/TR/2001/REC-SVG-20010904/DTD/svg10.dtd">
<svg version="1.0" xmlns="http://www.w3.org/2000/svg"
 width="872.000000pt" height="872.000000pt" viewBox="0 0 872.000000 872.000000"
 preserveAspectRatio="xMidYMid meet">
<metadata>
Created by potrace 1.14, written by Peter Selinger 2001-2017
</metadata>
<g transform="translate(0.000000,872.000000) scale(0.100000,-0.100000)"
fill="#000000" stroke="none">
<path d="M2604 6621 c4 -7 -1 -11 -13 -11 -11 0 -26 -8 -33 -18 -7 -11 -23
-24 -35 -31 -13 -6 -23 -18 -23 -26 0 -8 -6 -14 -12 -12 -7 1 -12 -4 -10 -12
2 -8 -3 -11 -13 -8 -8 4 -15 2 -15 -3 0 -6 5 -10 11 -10 5 0 7 -5 4 -10 -4 -6
-10 -8 -15 -5 -5 3 -11 1 -14 -4 -4 -5 -2 -13 4 -16 8 -5 7 -11 -1 -21 -6 -8
-9 -17 -6 -20 3 -3 1 -18 -3 -34 -4 -16 -5 -31 -2 -35 8 -7 6 -91 -3 -105 -3
-5 -3 -10 2 -10 4 0 8 -13 8 -30 0 -16 -4 -30 -10 -30 -5 0 -4 -5 3 -12 7 -7
8 -17 1 -30 -5 -10 -6 -18 -2 -18 7 0 9 -76 3 -105 -1 -5 -1 -12 0 -15 6 -16
5 -62 -2 -66 -5 -3 -5 -10 -1 -17 8 -14 8 -132 -1 -146 -4 -6 -4 -11 1 -11 9
0 8 -94 -2 -109 -3 -6 -3 -11 2 -11 9 0 8 -94 -1 -109 -4 -5 -3 -12 2 -15 9
-5 9 -47 -1 -63 -4 -7 -4 -14 0 -16 9 -6 8 -119 -1 -142 -3 -8 -2 -15 2 -15
11 0 9 -54 -3 -62 -6 -5 -5 -8 2 -8 9 0 10 -7 3 -25 -5 -14 -6 -25 -2 -25 4 0
7 -13 7 -30 0 -16 -4 -30 -9 -30 -5 0 -4 -6 2 -13 7 -8 7 -18 2 -27 -5 -8 -6
-19 -3 -24 10 -15 10 -57 1 -62 -5 -3 -5 -10 -1 -17 8 -14 8 -132 -1 -146 -4
-6 -4 -11 1 -11 7 0 9 -196 3 -225 -1 -5 -1 -12 0 -15 6 -17 4 -60 -3 -60 -5
0 -6 -8 -2 -17 4 -10 6 -101 6 -203 -1 -102 -2 -189 -2 -195 0 -5 2 -22 4 -38
2 -15 0 -30 -5 -33 -4 -3 -5 -10 -1 -17 8 -14 8 -132 -1 -146 -4 -6 -4 -11 1
-11 4 0 8 -13 8 -30 0 -16 -4 -30 -10 -30 -5 0 -4 -5 3 -12 7 -7 8 -17 1 -30
-5 -10 -6 -18 -2 -18 4 0 8 -13 8 -30 0 -16 -4 -30 -10 -30 -7 0 -7 -3 0 -8
12 -8 14 -102 3 -102 -5 0 -4 -8 1 -18 6 -11 6 -24 0 -35 -6 -9 -6 -17 -2 -17
9 0 8 -122 -1 -145 -3 -8 -2 -15 2 -15 4 0 7 -20 7 -45 0 -25 -3 -45 -8 -45
-4 0 -3 -8 2 -18 6 -11 6 -24 0 -35 -6 -9 -6 -17 -2 -17 9 0 8 -122 -1 -145
-3 -8 -2 -15 2 -15 4 0 7 -20 7 -45 0 -25 -3 -45 -8 -45 -4 0 -3 -8 2 -18 6
-11 6 -24 0 -35 -6 -9 -6 -17 -2 -17 9 0 8 -122 -1 -145 -3 -8 -2 -15 2 -15 4
0 7 -20 7 -45 0 -25 -3 -45 -8 -45 -4 0 -3 -8 2 -18 6 -11 6 -24 0 -35 -6 -9
-6 -17 -2 -17 4 0 8 -20 8 -45 0 -25 -3 -45 -8 -45 -4 0 -3 -8 2 -18 6 -11 6
-24 0 -35 -6 -9 -6 -17 -2 -17 4 0 8 -20 8 -45 0 -25 -4 -45 -9 -45 -6 0 -5
-5 1 -11 8 -8 8 -20 3 -35 -6 -16 -6 -24 1 -24 6 0 6 -7 -1 -20 -6 -11 -7 -20
-3 -20 4 0 8 -11 8 -25 0 -14 -4 -25 -8 -25 -5 0 -5 -5 -1 -11 10 -17 10 -149
0 -149 -6 0 -5 -5 1 -11 8 -8 8 -20 3 -35 -5 -13 -6 -24 -2 -24 4 0 7 -56 7
-125 0 -69 -3 -125 -7 -125 -4 0 -5 -7 -1 -17 4 -9 6 -36 7 -59 0 -24 3 -41 7
-38 4 2 10 0 14 -6 4 -7 12 -7 24 0 25 13 57 -20 38 -40 -10 -10 -9 -12 5 -7
12 4 15 2 11 -9 -3 -7 -10 -14 -17 -14 -6 0 -4 -4 4 -10 9 -6 19 -5 29 3 11 9
15 9 18 0 3 -7 9 -13 15 -13 6 0 7 7 4 16 -4 12 -2 15 9 10 20 -7 19 4 -1 18
-13 10 -13 12 5 12 11 0 17 -4 15 -8 -3 -4 5 -12 16 -18 11 -6 20 -20 20 -32
0 -12 3 -18 6 -15 4 3 15 2 25 -4 13 -6 19 -6 19 1 0 5 7 10 15 10 8 0 15 -6
15 -12 0 -9 4 -8 10 2 9 13 10 13 10 0 0 -9 3 -11 8 -5 4 6 18 10 31 10 14 0
26 7 28 15 4 13 3 13 -6 0 -9 -13 -11 -12 -16 2 -7 16 -21 18 -42 5 -7 -4 -10
-1 -8 10 1 10 8 17 14 16 6 -2 11 2 11 7 0 6 5 10 11 10 5 0 7 -5 4 -10 -9
-15 7 -12 29 5 23 18 36 19 36 4 0 -5 -6 -7 -12 -3 -7 4 -10 3 -6 -1 5 -5 19
-10 33 -11 18 -2 25 2 26 14 0 12 3 11 9 -5 11 -27 23 -31 13 -5 -6 15 -5 16
12 2 10 -8 16 -10 12 -4 -4 7 0 15 9 18 21 8 24 8 24 -5 0 -5 -6 -7 -12 -3 -9
5 -9 2 1 -9 15 -19 26 -23 15 -5 -5 7 -2 9 9 5 11 -4 14 -2 11 7 -3 8 0 17 7
22 7 4 10 3 5 -4 -3 -6 2 -16 13 -21 14 -8 21 -8 24 2 3 7 6 5 6 -5 1 -9 -6
-24 -15 -32 -8 -9 -12 -16 -8 -16 3 0 0 -8 -7 -17 -13 -17 -13 -17 6 -1 15 12
25 14 38 7 11 -7 17 -7 17 1 0 7 7 7 23 -1 l22 -12 -20 22 c-11 13 -27 20 -37
18 -20 -6 -22 1 -8 23 6 10 10 11 10 3 0 -7 5 -13 11 -13 5 0 8 4 5 8 -3 5 1
9 9 9 11 0 12 -4 4 -13 -8 -9 -3 -17 17 -30 32 -22 54 -26 54 -12 0 6 -8 7
-17 3 -14 -5 -15 -4 -6 6 9 9 16 9 25 1 8 -6 35 -9 61 -8 29 2 44 0 41 -6 -4
-6 4 -4 17 3 l24 13 -23 5 c-21 6 -20 7 15 26 21 11 44 27 51 35 11 12 11 11
1 -9 -10 -21 -9 -23 4 -18 11 4 14 2 10 -9 -8 -23 23 -6 36 19 6 12 9 14 7 5
-3 -10 -1 -20 4 -23 6 -4 10 1 10 10 0 12 6 14 28 9 15 -4 30 -11 33 -16 3 -5
9 -3 12 6 8 21 27 21 27 0 0 -8 5 -12 10 -9 6 4 8 10 5 14 -2 5 13 5 35 1 22
-4 40 -5 40 -2 0 2 8 -2 18 -9 15 -13 16 -12 3 4 -8 10 -9 17 -3 17 6 0 13 -4
17 -10 3 -5 13 -6 22 -3 11 4 14 3 9 -6 -6 -10 -4 -10 12 0 12 7 19 16 16 20
-6 10 24 5 33 -6 4 -4 2 -5 -4 -1 -7 4 -13 2 -13 -3 0 -6 8 -11 18 -12 9 0 25
-2 35 -4 9 -2 15 1 11 6 -3 5 -9 7 -14 4 -5 -3 -11 -1 -15 4 -3 6 4 8 16 6 13
-3 26 -10 31 -17 6 -10 8 -9 8 2 0 12 2 12 9 1 5 -8 11 -9 15 -3 8 14 46 11
45 -3 -3 -27 2 -43 17 -49 8 -3 12 -2 9 3 -3 5 -1 12 5 16 5 3 10 1 10 -6 0
-7 3 -9 6 -6 4 4 -1 18 -10 32 -17 26 -9 34 13 13 11 -10 13 -10 7 0 -9 15 10
16 19 2 4 -7 11 -7 18 -2 7 5 24 12 40 14 22 4 25 3 16 -8 -9 -11 -9 -14 0
-14 6 0 14 7 18 16 4 12 8 13 14 3 4 -7 15 -14 24 -15 13 -2 14 0 4 12 -16 19
-4 18 15 -2 11 -10 16 -11 16 -3 0 7 8 5 22 -7 19 -15 20 -16 9 -1 -11 14 -11
17 2 17 8 0 18 -6 20 -12 4 -10 6 -10 6 0 1 6 6 12 12 12 5 0 7 -4 4 -10 -3
-5 1 -10 9 -10 9 0 16 6 17 13 0 6 7 -1 14 -18 7 -16 12 -32 10 -35 -2 -3 19
-5 46 -5 27 0 49 4 49 9 0 5 7 3 15 -4 12 -10 15 -10 15 1 0 11 2 11 10 -1 9
-13 10 -13 10 0 0 13 1 13 10 0 9 -13 10 -13 10 0 0 13 1 13 10 0 9 -13 10
-13 10 0 0 13 1 13 10 0 8 -12 10 -12 10 -1 0 11 3 11 15 1 8 -7 15 -9 15 -4
0 5 14 9 30 9 17 0 30 -4 30 -8 0 -4 8 -3 18 2 10 5 24 6 32 1 8 -5 22 -4 32
1 13 7 18 6 18 -3 0 -10 2 -10 9 1 7 10 10 10 13 1 3 -10 8 -9 19 2 12 13 17
13 27 1 9 -9 18 -10 30 -4 9 5 26 5 39 0 13 -5 23 -5 23 0 0 10 43 6 61 -5 8
-4 9 -3 5 4 -9 16 7 15 22 0 9 -9 12 -9 12 2 0 13 2 13 10 0 5 -8 10 -10 10
-4 0 11 52 10 71 -1 5 -4 9 -2 9 3 0 11 30 9 49 -3 10 -6 12 -4 6 6 -8 12 -6
12 8 0 9 -7 17 -9 17 -4 0 12 30 11 49 -2 10 -6 12 -4 6 6 -8 12 -6 12 8 0 9
-7 17 -9 17 -4 0 11 29 11 48 -1 6 -4 12 -4 12 1 0 9 107 9 117 0 10 -11 23
-8 23 4 0 5 -5 7 -12 3 -7 -4 -8 -3 -4 5 6 9 11 9 23 0 11 -10 16 -10 22 0 6
9 10 8 15 -5 6 -16 8 -16 17 -4 8 13 10 13 19 0 8 -12 10 -12 10 5 0 17 2 17
10 5 5 -8 10 -11 10 -6 0 5 8 2 17 -5 15 -12 16 -12 9 5 -6 19 -6 19 11 3 10
-9 24 -13 30 -9 15 9 55 8 71 -2 8 -4 12 -1 12 11 0 14 2 15 9 4 6 -10 22 -12
55 -9 25 3 44 3 42 -1 -2 -3 26 -5 64 -4 62 1 67 0 63 -18 -3 -10 -1 -19 4
-19 15 0 9 -54 -7 -68 -13 -11 -13 -11 0 -7 12 4 15 -7 15 -70 0 -41 -4 -75
-8 -75 -5 0 -5 -5 -1 -12 12 -18 11 -58 -1 -58 -6 0 -7 -3 0 -8 17 -12 14 -42
-4 -42 -14 0 -14 -2 -1 -10 13 -8 13 -11 1 -22 -12 -11 -12 -10 -6 2 7 12 6
13 -6 4 -15 -13 -72 -16 -64 -4 2 3 -2 7 -10 7 -8 0 -12 -4 -10 -8 3 -4 -2 -9
-10 -12 -8 -4 -12 -1 -9 6 5 13 -40 16 -52 4 -4 -3 -16 -2 -27 4 -11 6 -17 7
-13 1 3 -5 -5 -9 -19 -9 -14 0 -23 3 -20 7 2 3 -2 7 -10 7 -8 0 -12 -4 -9 -9
7 -10 -39 -6 -47 5 -8 11 -40 -3 -33 -14 3 -5 -2 -6 -10 -3 -9 3 -13 11 -9 18
4 6 -1 5 -10 -3 -9 -7 -17 -10 -17 -6 0 4 -6 2 -14 -4 -11 -9 -16 -9 -22 0 -4
8 -3 9 4 5 7 -4 12 -2 12 3 0 14 -13 14 -28 -1 -7 -7 -12 -8 -12 -3 0 4 -10 0
-22 -11 -13 -10 -17 -12 -10 -4 18 21 15 32 -7 20 -24 -12 -34 -13 -27 -2 8
13 -51 7 -67 -7 -9 -7 -18 -8 -21 -2 -3 5 -21 7 -39 5 -24 -4 -28 -2 -17 5 8
6 10 11 4 11 -6 0 -14 -3 -18 -7 -3 -4 -16 -8 -27 -10 -14 -2 -18 1 -12 9 4 7
-5 5 -20 -5 -17 -11 -25 -13 -21 -4 3 8 -3 13 -16 13 -15 0 -19 -5 -15 -21 5
-18 5 -18 -5 -3 -6 10 -17 15 -27 11 -12 -5 -14 -3 -8 7 6 9 4 11 -6 5 -21
-14 -59 -15 -59 -2 0 7 -4 6 -10 -3 -9 -13 -10 -13 -10 0 0 9 -3 11 -8 5 -10
-14 -46 -19 -37 -6 9 16 -1 13 -19 -5 -12 -12 -16 -12 -16 -2 0 14 -44 18 -56
5 -4 -3 -16 -1 -27 5 -17 9 -19 8 -13 -8 6 -15 4 -16 -5 -7 -6 6 -18 9 -27 6
-8 -4 -13 -2 -9 3 6 11 -33 11 -50 1 -5 -4 -13 -3 -17 0 -10 11 -37 12 -30 2
8 -13 -10 -11 -25 4 -11 10 -12 9 -6 -2 6 -10 4 -13 -7 -8 -9 3 -21 0 -27 -6
-9 -9 -10 -8 -5 7 6 16 4 18 -12 12 -37 -15 -64 -17 -64 -4 0 9 -3 8 -10 -2
-9 -13 -10 -13 -10 0 0 9 -3 11 -8 5 -10 -14 -46 -19 -37 -6 9 16 -1 13 -19
-5 -12 -12 -16 -12 -16 -2 0 14 -44 18 -56 5 -4 -3 -16 -2 -27 4 -14 8 -18 8
-13 0 4 -6 1 -11 -8 -11 -8 0 -17 4 -20 8 -5 9 -47 9 -63 -1 -5 -4 -13 -3 -17
0 -10 11 -37 12 -30 2 8 -13 -10 -11 -25 4 -11 10 -12 9 -6 -2 6 -10 4 -13 -7
-8 -9 3 -20 1 -26 -5 -6 -6 -12 -6 -17 3 -5 8 -4 10 3 5 7 -4 12 -2 12 4 0 8
-7 9 -17 5 -36 -14 -63 -15 -63 -3 0 9 -3 8 -10 -2 -9 -13 -10 -13 -10 0 0 9
-3 11 -8 5 -9 -13 -46 -20 -38 -7 3 5 -1 9 -9 9 -8 0 -12 -4 -9 -8 2 -4 0 -10
-6 -14 -5 -3 -10 0 -10 7 0 14 -37 17 -58 4 -7 -4 -12 -2 -12 4 0 6 -4 8 -10
5 -21 -13 -54 -14 -62 -2 -6 9 -8 9 -8 0 0 -7 -5 -13 -11 -13 -5 0 -8 4 -5 9
9 14 -19 7 -40 -9 -10 -8 -15 -10 -11 -3 4 6 3 14 -3 18 -5 3 -10 1 -10 -4 0
-6 -5 -11 -11 -11 -5 0 -7 5 -3 11 4 7 -1 7 -16 -1 -12 -6 -29 -8 -38 -4 -9 4
-21 6 -27 5 -29 -8 -41 -7 -54 3 -11 8 -13 8 -7 -1 4 -8 1 -13 -9 -13 -9 0
-14 4 -11 8 6 10 -51 7 -78 -4 -15 -6 -17 -4 -11 6 6 10 4 11 -6 4 -8 -5 -25
-10 -39 -11 -20 -3 -22 -1 -10 7 8 5 10 10 4 10 -6 0 -14 -3 -18 -7 -12 -12
-48 -14 -40 -2 5 8 1 8 -14 0 -25 -13 -35 -14 -28 -3 3 5 -9 8 -25 7 -17 -1
-34 -7 -38 -14 -6 -10 -10 -9 -15 4 -3 10 -11 13 -18 9 -20 -13 -59 -14 -52
-2 5 7 2 8 -7 2 -22 -13 -51 -16 -43 -3 4 8 0 8 -15 0 -16 -9 -21 -9 -21 1 0
8 -3 9 -8 3 -11 -15 -32 -17 -32 -2 0 8 -4 7 -10 -3 -5 -8 -10 -10 -10 -5 0 6
-5 3 -10 -5 -9 -13 -10 -13 -10 0 0 9 -9 16 -20 16 -11 0 -20 -4 -20 -7 0 -8
-51 -2 -59 7 -2 2 -10 -1 -18 -7 -7 -6 -13 -7 -13 -2 0 10 -40 10 -57 0 -7 -4
-14 -3 -18 3 -4 7 -13 6 -27 -1 -16 -9 -23 -8 -29 2 -5 8 -9 9 -9 3 0 -12 -29
-12 -49 1 -10 5 -12 4 -7 -3 4 -7 2 -12 -3 -12 -6 0 -11 5 -11 11 0 8 -6 7
-17 -2 -13 -11 -17 -11 -21 -1 -3 10 -7 10 -19 1 -12 -10 -16 -10 -24 2 -6 10
-9 11 -9 1 0 -7 -4 -11 -9 -8 -5 4 -12 0 -14 -6 -4 -9 -6 -8 -6 3 -1 9 -8 16
-16 16 -8 0 -12 -4 -9 -9 3 -4 1 -8 -5 -8 -5 0 -12 6 -14 13 -3 6 -6 3 -7 -8
-1 -19 -1 -19 -11 -2 -6 10 -15 14 -22 10 -17 -11 -30 -11 -46 1 -10 8 -13 8
-9 1 4 -6 -3 -17 -15 -24 -18 -11 -20 -11 -9 0 18 19 15 31 -6 20 -13 -7 -22
-7 -29 0 -8 8 -13 7 -18 -2 -6 -8 -4 -10 5 -4 8 5 11 4 7 -2 -8 -13 -41 -10
-59 5 -8 7 -19 7 -28 2 -9 -6 -20 -4 -29 3 -10 8 -13 8 -8 1 8 -14 -43 -16
-60 -2 -7 6 -14 5 -19 -3 -5 -8 -3 -9 7 -4 12 8 12 6 0 -8 -15 -18 -26 -23
-16 -7 3 6 -1 11 -9 11 -40 3 -60 17 -49 32 5 7 8 103 8 214 -1 123 2 201 8
200 17 -3 26 50 12 70 -9 13 -10 22 -3 30 8 9 7 13 -3 13 -9 0 -10 3 -4 8 12
9 14 82 1 82 -4 0 -2 8 5 17 12 15 12 16 -1 8 -13 -8 -13 -7 -1 8 10 13 10 17
1 17 -10 0 -10 3 0 15 10 12 10 15 0 15 -10 0 -10 3 0 15 10 12 10 15 -1 15
-11 0 -11 2 1 10 12 8 12 10 1 10 -11 0 -11 3 -1 15 10 12 10 15 0 15 -9 0 -9
4 1 17 12 15 12 16 -1 8 -13 -8 -13 -7 -1 8 9 12 10 17 2 17 -7 0 -9 5 -6 11
11 16 13 59 4 53 -13 -8 -11 10 4 25 10 11 9 12 -3 6 -12 -7 -13 -6 -3 6 17
21 17 22 4 48 -7 13 -8 21 -3 17 6 -4 10 2 9 14 -1 11 -5 20 -9 20 -4 0 -8 5
-8 11 0 5 4 8 8 5 12 -7 9 68 -3 76 -7 5 -7 8 0 8 6 0 10 25 10 56 0 31 3 58
7 61 5 2 5 9 1 16 -10 16 -10 58 0 64 4 2 2 12 -5 21 -8 9 -8 13 -1 9 8 -5 10
4 6 31 -2 20 -4 53 -3 72 0 19 0 51 -1 70 -5 120 -4 187 3 202 4 9 4 19 0 22
-11 6 -9 36 3 55 5 10 4 12 -3 7 -7 -4 -12 -2 -12 3 0 6 5 11 10 11 6 0 10 5
10 11 0 5 -3 8 -7 6 -5 -3 -9 6 -9 19 -1 15 2 21 10 17 6 -4 5 1 -3 10 -9 11
-10 17 -2 17 6 0 11 7 11 16 0 9 -5 12 -12 8 -7 -4 -5 1 4 12 17 19 17 21 0
38 -9 11 -11 16 -4 12 15 -9 15 -5 2 29 -9 23 -8 26 5 21 13 -5 13 -2 2 17
-10 16 -13 68 -13 189 1 91 -2 164 -6 161 -13 -7 -9 12 5 26 9 11 9 13 0 7
-16 -9 -15 -17 -17 237 -2 173 -1 197 13 197 14 0 14 2 2 9 -12 8 -15 41 -16
160 -1 92 2 149 8 148 13 -3 18 33 6 54 -5 10 -5 20 0 23 11 7 11 55 0 62 -5
3 -6 11 -2 17 12 19 12 37 2 37 -6 0 -7 6 -2 13 11 19 10 207 -2 207 -6 0 -6
3 0 8 14 9 14 45 0 54 -6 5 -5 8 3 8 7 0 10 5 7 10 -4 6 -12 8 -18 4 -7 -3 -3
2 7 10 13 10 15 16 7 16 -11 0 -11 3 -1 15 10 12 10 15 -1 15 -12 0 -12 2 0 9
11 7 11 9 0 14 -11 4 -12 7 -1 15 7 5 10 16 6 25 -3 9 -2 17 3 17 12 0 10 53
-2 62 -6 4 -1 8 10 9 l20 0 -20 9 c-13 6 -15 9 -5 9 13 1 13 2 0 11 -12 8 -12
10 -1 10 11 0 11 3 1 15 -7 8 -8 15 -3 15 6 0 8 12 6 28 -10 59 -8 1332 2
1332 7 0 7 3 0 8 -15 11 -17 32 -3 32 9 0 9 3 0 12 -15 15 -16 32 -2 23 15 -9
12 0 -8 23 -13 14 -22 18 -29 11 -6 -6 -9 -2 -9 13 1 12 -3 23 -9 23 -14 1
-52 24 -39 25 5 0 15 -5 21 -11 8 -8 13 -8 18 0 3 6 3 10 -2 9 -4 -1 -18 3
-29 10 -12 6 -24 8 -28 5 -3 -3 -6 -2 -6 3 0 6 5 15 12 22 9 9 8 12 -6 12 -11
0 -15 4 -10 13 6 9 5 9 -7 0 -12 -10 -18 -9 -31 7 -9 10 -14 21 -11 23 3 3 -5
3 -16 0 -12 -3 -24 -10 -27 -15 -3 -5 -14 -2 -25 8 -12 11 -19 13 -19 5 0 -7
-5 -9 -12 -5 -7 5 -9 2 -6 -8 4 -9 0 -15 -8 -15 -8 0 -14 5 -14 11 0 6 -7 0
-16 -13 -10 -14 -23 -21 -35 -18 -10 3 -17 0 -16 -7 1 -6 -4 -10 -12 -8 -12 3
-12 1 -1 -13 7 -9 9 -15 4 -14 -20 3 -35 -2 -29 -10 3 -5 1 -12 -3 -15 -5 -3
-8 -73 -8 -156 1 -82 -3 -150 -7 -150 -5 0 -5 -5 -1 -11 8 -14 8 -144 -1 -158
-3 -6 -3 -11 2 -11 7 0 8 -46 3 -125 -1 -17 -1 -32 0 -35 8 -22 6 -40 -3 -40
-8 0 -8 -3 -2 -8 15 -11 17 -32 2 -32 -9 0 -9 -2 1 -9 8 -4 14 -12 14 -16 0
-4 -6 -12 -14 -16 -11 -7 -11 -9 1 -9 10 0 11 -3 2 -13 -6 -8 -8 -17 -4 -21
12 -12 12 -36 0 -36 -8 0 -7 -3 2 -9 9 -6 10 -10 2 -16 -9 -5 -9 -11 1 -22 15
-19 15 -23 -4 -34 -7 -5 -8 -9 -3 -9 6 0 9 -31 7 -77 -4 -101 -4 -84 0 -191 2
-50 -1 -92 -5 -92 -4 0 -3 -8 2 -18 6 -11 6 -24 0 -35 -6 -9 -6 -17 -2 -17 9
0 8 -94 -2 -109 -3 -6 -3 -11 2 -11 4 0 8 -41 8 -90 0 -50 -4 -90 -8 -90 -5 0
-5 -5 -1 -11 11 -19 10 -1209 -1 -1209 -7 0 -7 -3 0 -8 15 -11 17 -32 3 -32
-10 0 -10 -2 0 -9 17 -11 17 -21 0 -32 -7 -5 -8 -9 -3 -9 11 0 13 -2119 1
-2138 -3 -6 -2 -14 4 -17 8 -5 8 -11 1 -19 -6 -7 -8 -16 -5 -19 10 -10 11
-117 1 -117 -4 0 -5 -5 -1 -12 11 -17 11 -98 1 -98 -5 0 -5 -5 -1 -12 10 -16
11 -98 1 -98 -5 0 -5 -5 -1 -12 4 -7 7 -70 7 -140 0 -115 1 -127 15 -116 13
11 14 11 8 -1 -7 -10 -3 -12 13 -6 21 6 26 -1 22 -34 -2 -8 2 -10 10 -5 9 5
11 2 6 -8 -3 -9 1 -24 9 -35 14 -16 14 -16 3 7 -12 24 -11 25 8 7 11 -9 23
-14 26 -11 4 4 11 -5 17 -20 8 -23 13 -25 29 -16 11 5 22 6 25 1 9 -13 56 -20
63 -8 3 6 1 7 -5 3 -7 -4 -12 -2 -12 3 0 13 17 14 24 2 3 -5 29 -9 56 -9 37
-1 48 2 43 11 -5 9 -3 9 8 1 8 -6 39 -10 69 -10 30 1 63 -2 74 -7 13 -6 16 -6
11 2 -7 13 35 9 56 -5 8 -4 9 -3 5 4 -8 14 20 12 43 -2 10 -7 12 -5 6 4 -5 9
-2 10 13 6 12 -4 30 -2 42 4 14 8 20 8 20 0 0 -6 5 -8 12 -4 18 11 48 12 42 2
-10 -15 30 -4 44 12 10 11 12 12 6 1 -5 -11 -3 -13 9 -8 10 3 17 3 17 -2 0 -4
101 -8 224 -8 123 0 229 -4 236 -8 8 -5 11 -4 7 2 -7 11 95 9 114 -3 7 -4 10
-3 6 2 -5 10 323 10 348 0 8 -3 16 -2 19 2 5 9 250 7 264 -2 6 -3 13 -3 16 2
5 8 79 7 102 -2 6 -2 15 -2 18 1 9 9 131 7 146 -2 9 -5 11 -4 6 3 -4 7 -2 12
3 12 6 0 11 -5 11 -11 0 -5 5 -7 11 -3 19 11 158 11 151 -1 -3 -5 2 -4 11 4
14 11 17 11 17 0 0 -11 3 -11 11 1 8 12 12 12 16 2 4 -10 8 -10 19 -1 11 9 14
8 14 -2 0 -11 3 -11 11 1 8 12 12 12 16 2 4 -9 8 -10 18 -2 10 8 15 8 20 0 5
-8 11 -8 21 1 11 9 14 8 14 -2 0 -11 3 -11 11 1 8 12 12 12 16 2 4 -10 8 -10
19 -1 11 9 14 8 14 -2 0 -11 2 -11 10 1 8 12 11 13 19 1 6 -9 10 -10 16 -2 5
9 11 9 23 -1 12 -10 14 -10 8 0 -4 6 -2 12 3 12 6 0 11 -5 11 -11 0 -5 6 -7
12 -3 7 5 52 7 101 6 63 -1 86 2 81 10 -5 7 -3 8 7 2 22 -13 42 -14 58 -1 12
10 13 9 6 -2 -6 -11 -1 -13 24 -9 17 2 31 1 31 -4 0 -5 6 -6 12 -1 7 4 26 6
43 4 27 -3 28 -2 15 16 -14 17 -14 17 4 3 10 -8 44 -16 75 -17 40 -2 52 0 41
7 -9 6 -10 10 -3 10 6 0 14 -4 17 -8 3 -5 30 -9 61 -8 30 1 55 -3 55 -7 0 -5
5 -5 11 -1 7 4 121 7 255 7 158 -1 242 3 238 9 -4 6 6 2 22 -8 15 -11 25 -13
20 -6 -6 9 -1 11 18 8 14 -3 31 -8 37 -12 7 -4 9 -3 6 3 -8 12 94 10 114 -2 8
-5 10 -4 5 3 -8 13 20 12 41 -1 6 -4 14 -3 18 3 4 7 13 6 27 -1 15 -8 19 -8
14 0 -8 12 21 11 41 -2 6 -4 15 -2 19 4 4 8 9 7 15 -2 7 -11 9 -11 9 -1 0 9 7
11 19 7 14 -4 25 2 40 23 19 27 51 39 51 20 0 -4 5 -8 12 -8 6 0 8 3 5 6 -4 4
8 20 26 36 17 17 27 27 20 24 -7 -4 -9 1 -6 14 3 11 10 20 15 20 5 0 6 -6 3
-12 -4 -7 1 -4 10 7 9 11 20 19 24 18 11 -3 7 101 -4 109 -7 5 -7 8 0 8 6 0
10 135 10 385 0 212 3 385 8 385 4 0 -1 12 -10 27 -10 15 -12 24 -5 20 6 -5
12 -4 12 2 0 6 -7 11 -16 11 -8 0 -12 4 -9 10 3 5 -1 10 -9 10 -9 0 -16 -6
-16 -12 -1 -7 -10 4 -21 25 -19 37 -34 51 -23 22 5 -12 2 -14 -12 -8 -17 6
-18 5 -4 -13 14 -18 14 -18 -2 -5 -10 7 -15 18 -11 24 4 7 0 8 -12 3 -18 -7
-18 -6 -1 13 13 14 14 21 5 27 -8 4 -10 3 -5 -4 4 -7 2 -12 -3 -12 -6 0 -11 4
-11 9 0 14 -48 19 -61 7 -9 -8 -10 -7 -6 6 4 12 2 15 -9 11 -7 -3 -14 -9 -14
-15 0 -5 -5 -6 -11 -2 -20 12 -129 12 -122 0 4 -6 -4 -2 -16 8 -21 19 -21 19
-15 1 5 -13 4 -16 -5 -10 -18 10 -131 13 -124 2 3 -5 -4 -4 -14 2 -11 6 -23 7
-27 4 -3 -3 -6 -1 -6 6 0 7 -5 9 -10 6 -6 -4 -8 -11 -5 -16 3 -5 -1 -6 -9 -3
-23 9 -177 10 -182 2 -3 -4 -16 -3 -30 2 -33 13 -37 13 -28 -3 6 -9 4 -9 -8 1
-11 9 -18 10 -23 2 -3 -6 -11 -7 -17 -3 -19 11 -127 10 -120 -2 3 -5 -7 -2
-22 9 -16 10 -25 12 -21 6 6 -10 1 -11 -19 -6 -16 4 -26 2 -26 -4 0 -6 -5 -8
-12 -3 -20 12 -69 13 -62 1 4 -6 -2 -5 -15 1 -11 7 -21 8 -21 4 0 -4 -7 2 -15
13 -13 18 -14 18 -9 -6 3 -14 2 -21 -3 -15 -13 15 -56 18 -47 2 6 -9 4 -9 -8
1 -8 7 -26 11 -39 8 -13 -2 -30 2 -38 8 -11 8 -13 8 -7 -1 5 -10 -5 -12 -43
-11 -28 2 -51 7 -51 12 0 6 -6 2 -12 -7 -12 -15 -16 -15 -41 -2 -15 8 -25 10
-22 5 3 -6 -19 -8 -54 -6 -39 2 -58 -1 -54 -7 4 -6 1 -7 -6 -2 -20 12 -160 12
-165 0 -2 -5 -5 -4 -5 3 -1 6 -6 12 -12 12 -5 0 -7 -6 -3 -12 6 -10 4 -10 -7
-2 -8 5 -25 9 -39 8 -14 -1 -31 3 -39 10 -11 8 -13 8 -8 0 4 -7 -3 -14 -18
-16 -13 -3 -23 -2 -21 1 2 3 -24 6 -59 6 -35 0 -61 -3 -59 -7 3 -4 -2 -5 -10
-2 -9 3 -13 11 -9 18 5 7 2 7 -8 -1 -9 -8 -42 -11 -89 -9 -41 1 -80 -2 -87 -6
-7 -6 -14 -4 -19 3 -5 8 -3 9 6 4 9 -6 11 -4 5 4 -5 9 -10 10 -18 2 -14 -14
-40 -15 -32 -1 3 6 -1 7 -9 4 -9 -3 -16 -10 -16 -16 0 -5 -5 -6 -10 -3 -6 4
-7 12 -3 18 4 7 0 7 -10 -1 -11 -9 -30 -12 -57 -8 -28 4 -39 2 -34 -5 4 -8 0
-8 -12 -2 -11 5 -28 8 -39 8 -11 -1 -26 4 -34 9 -12 9 -13 8 -7 -3 7 -10 0
-12 -33 -7 -31 4 -40 2 -36 -7 4 -6 -1 -3 -9 7 -9 11 -16 14 -16 8 0 -7 -14
-12 -31 -12 -21 0 -28 4 -23 13 6 9 4 10 -7 0 -16 -16 -43 -17 -34 -2 4 6 -2
5 -14 -3 -17 -10 -25 -10 -41 -1 -14 9 -21 10 -26 1 -5 -7 -3 -8 6 -3 8 5 11
4 6 -3 -4 -6 -17 -8 -34 -3 -15 4 -33 6 -40 4 -7 -3 -20 1 -29 9 -14 11 -16
11 -8 -1 6 -11 2 -13 -23 -8 -20 4 -32 2 -36 -6 -3 -8 -5 -8 -5 2 -1 11 -4 11
-18 0 -11 -10 -14 -10 -9 -1 4 7 1 12 -9 12 -9 0 -13 -4 -10 -10 4 -6 -2 -7
-17 -1 -36 14 -40 14 -49 -1 -6 -9 -9 -10 -9 -1 0 7 -7 10 -15 7 -9 -4 -15 0
-15 7 -1 9 -4 8 -11 -4 -6 -9 -13 -16 -17 -13 -18 11 -82 15 -82 5 0 -6 -5 -7
-12 -2 -7 4 -44 8 -83 8 l-70 0 0 1138 c-1 714 3 1137 9 1137 5 0 6 3 3 6 -3
4 -2 16 4 27 9 15 8 18 -2 12 -8 -6 -10 -4 -4 6 13 19 14 49 2 49 -6 0 -6 5 1
13 5 6 6 21 2 32 -4 11 -3 28 2 38 6 12 5 17 -4 17 -9 0 -9 3 2 10 12 8 12 10
1 10 -11 0 -11 3 -1 15 11 13 10 14 -2 10 -12 -5 -14 7 -13 72 1 43 -3 84 -8
91 -6 8 -6 12 1 12 13 0 11 192 -3 202 -7 5 -7 8 0 8 6 0 9 21 8 47 -1 34 -5
47 -14 45 -8 -2 -6 5 5 17 11 12 14 21 9 21 -13 0 -12 32 1 42 6 4 5 12 -2 21
-7 7 -9 16 -6 20 3 3 7 26 10 52 2 26 9 55 16 63 8 10 9 13 1 9 -6 -4 -13 -2
-15 5 -6 17 3 59 11 54 4 -3 7 4 7 15 0 10 -4 19 -8 19 -4 0 -8 5 -8 11 0 5 4
8 8 5 5 -3 9 1 9 9 0 8 -5 15 -10 15 -5 0 -3 8 4 17 12 14 12 16 0 8 -11 -6
-12 -5 -5 6 12 21 13 59 0 59 -6 0 -4 5 4 10 12 8 13 11 1 19 -9 6 -10 11 -2
15 6 4 11 12 11 17 0 6 -4 8 -9 5 -9 -6 -7 37 4 53 3 6 1 11 -6 11 -8 0 -8 4
1 15 10 12 10 15 -1 15 -9 0 -10 3 -4 8 13 9 15 52 2 52 -5 0 -4 7 3 15 10 12
10 15 -1 15 -12 0 -12 2 0 9 11 7 11 9 0 14 -12 4 -11 7 1 16 13 9 13 11 1 11
-12 0 -12 3 -3 12 9 9 7 14 -6 24 -15 12 -14 12 8 8 22 -5 23 -4 6 6 -15 10
-16 14 -5 21 10 6 11 9 2 9 -7 0 -13 5 -13 11 0 5 6 7 13 3 10 -6 10 -4 0 7
-16 16 -17 43 -2 33 6 -3 3 5 -6 20 -17 25 -16 26 1 26 15 0 16 2 5 9 -19 12
-22 103 -2 96 12 -5 12 -3 1 11 -12 13 -11 17 1 25 11 7 11 9 -3 9 -19 0 -22
8 -12 34 3 9 11 13 16 10 6 -4 2 5 -7 20 -10 15 -15 29 -11 33 3 3 6 1 6 -5 0
-21 16 -13 17 8 1 11 -2 20 -8 20 -5 0 -9 5 -9 11 0 5 4 8 8 5 5 -3 9 1 9 9 0
8 -5 11 -11 8 -6 -4 -5 1 3 10 13 16 9 21 -14 18 -5 -1 -2 5 7 12 15 12 15 14
0 25 -15 10 -15 11 3 6 15 -4 14 -2 -5 10 -16 10 -19 15 -10 16 9 0 11 3 5 8
-6 4 -11 19 -10 34 0 25 1 26 20 10 19 -17 19 -17 0 13 -17 28 -17 29 0 15 19
-15 67 -22 59 -8 -3 4 8 6 25 4 18 -2 28 1 25 8 -3 7 15 10 53 9 54 -1 58 -3
55 -25 -1 -13 1 -18 6 -11 4 6 23 10 43 9 24 -2 36 1 36 10 0 10 -6 10 -21 3
-21 -10 -21 -10 -1 6 11 9 19 21 17 26 -1 6 2 8 8 4 6 -3 8 -10 5 -15 -3 -4 2
-10 10 -14 8 -3 17 -1 21 5 3 6 15 1 28 -13 17 -17 20 -27 12 -37 -8 -11 -8
-13 2 -7 13 8 13 7 15 -67 1 -26 -2 -47 -8 -47 -5 0 -4 -5 2 -11 6 -6 8 -23 3
-44 -4 -19 -5 -36 -2 -39 9 -10 7 -76 -3 -76 -5 0 -4 -4 3 -9 17 -11 17 -21 0
-32 -7 -5 -8 -9 -3 -9 10 0 12 -227 2 -254 -3 -8 -3 -17 0 -20 8 -8 6 -333 -2
-346 -3 -6 -3 -10 2 -10 9 0 8 -82 -1 -105 -3 -8 -2 -15 2 -15 4 0 7 -13 7
-30 0 -16 -4 -30 -10 -30 -5 0 -4 -5 3 -12 7 -7 8 -17 1 -30 -5 -10 -6 -18 -2
-18 9 0 8 -94 -2 -109 -3 -6 -3 -11 2 -11 9 0 8 -82 -1 -105 -3 -8 -2 -15 2
-15 9 0 7 -95 -3 -109 -3 -6 -3 -11 2 -11 9 0 8 -82 -1 -105 -3 -8 -2 -15 2
-15 4 0 7 -13 7 -30 0 -16 -4 -30 -10 -30 -5 0 -4 -5 3 -12 7 -7 8 -17 1 -30
-5 -10 -6 -18 -2 -18 7 0 9 -75 3 -105 -2 -6 -1 -12 0 -15 6 -16 5 -62 -2 -66
-5 -3 -5 -10 -1 -16 10 -17 10 -78 0 -78 -5 0 -4 -7 3 -15 9 -11 9 -15 1 -15
-7 0 -9 -5 -5 -12 10 -16 11 -68 1 -68 -5 0 -5 -5 -1 -12 10 -16 11 -68 1 -68
-5 0 -5 -5 -1 -12 10 -16 11 -68 1 -68 -5 0 -5 -5 -1 -12 10 -16 11 -68 1 -68
-5 0 -5 -5 -1 -12 10 -16 11 -68 1 -68 -5 0 -5 -5 -2 -10 9 -15 11 -1140 2
-1140 -5 0 -5 -5 -1 -11 3 -6 6 -49 7 -95 0 -65 3 -84 12 -80 9 3 12 -3 11
-19 -2 -16 1 -22 10 -18 8 3 14 1 14 -5 0 -5 8 -9 17 -8 10 0 18 -5 19 -11 1
-7 3 -16 4 -20 1 -5 2 -10 2 -13 0 -3 8 -6 18 -6 10 0 16 4 14 8 -3 4 6 12 18
19 21 11 22 11 9 -4 -11 -15 -11 -17 2 -17 8 0 21 -8 28 -17 8 -10 9 -14 2
-10 -6 4 -14 3 -17 -2 -5 -7 22 -8 32 -1 8 7 28 4 34 -5 5 -6 8 -6 8 2 0 12
49 11 70 -2 5 -3 10 -2 10 2 0 5 9 9 20 9 11 0 20 -4 20 -9 0 -5 8 -3 17 4 14
12 15 12 9 1 -7 -11 -4 -12 13 -3 11 7 21 8 21 3 0 -10 62 -8 79 2 6 4 11 2
11 -4 0 -8 6 -8 20 0 14 8 20 8 20 0 0 -8 6 -8 20 0 15 8 20 8 20 -1 0 -8 4
-8 15 1 9 8 15 8 15 2 0 -12 39 -10 59 2 8 5 16 3 21 -5 7 -10 12 -10 23 0 11
8 16 9 19 1 2 -8 11 -8 31 -1 15 6 27 7 27 2 0 -5 11 -8 24 -7 13 0 22 4 19 9
-2 4 0 7 6 7 5 0 11 -6 14 -12 3 -10 7 -10 19 0 11 9 17 9 20 2 2 -8 11 -8 30
-1 19 7 28 7 30 -1 3 -8 11 -7 27 2 15 7 21 8 17 1 -10 -15 7 -14 22 1 9 9 12
9 12 0 0 -10 5 -10 20 -2 14 8 20 8 20 0 0 -8 6 -8 20 0 12 6 20 7 20 1 0 -10
25 -9 36 2 10 10 26 9 20 -1 -6 -10 25 -9 42 2 7 4 12 2 12 -4 0 -8 6 -8 20 0
11 6 20 7 20 2 0 -10 30 -9 47 1 6 4 15 2 19 -4 4 -8 9 -7 15 2 7 12 9 12 9 0
0 -11 3 -11 15 -1 10 8 15 9 15 1 0 -7 8 -8 25 -1 14 5 25 6 25 1 0 -11 19 -9
38 2 7 5 12 3 12 -4 0 -8 4 -8 15 1 12 10 15 10 15 0 0 -10 3 -10 15 0 11 9
15 9 15 1 0 -9 5 -9 20 -1 11 6 20 7 20 2 0 -10 30 -9 48 2 7 4 12 2 12 -5 0
-8 4 -8 15 1 12 10 15 10 15 0 0 -10 3 -10 15 0 10 8 15 9 15 1 0 -7 8 -8 25
-1 14 5 25 6 25 1 0 -10 26 -9 36 2 4 4 14 2 21 -5 11 -9 16 -9 22 0 4 7 12 8
21 2 8 -5 21 -5 32 1 12 7 18 6 18 -1 0 -7 7 -7 21 1 17 8 23 8 29 -1 5 -8 13
-9 21 -4 21 13 39 13 39 1 0 -7 5 -5 10 3 5 8 10 10 10 4 0 -12 29 -12 48 0 7
4 12 2 12 -5 0 -10 3 -10 12 -1 7 7 17 8 29 2 12 -7 20 -6 25 1 4 8 9 7 14 -2
7 -10 12 -10 23 0 12 9 16 9 19 -1 4 -10 8 -10 21 1 14 11 17 11 17 0 0 -10 3
-10 12 -1 13 13 32 16 24 4 -2 -4 4 -8 14 -8 10 0 16 4 14 8 -7 11 4 10 28 -3
15 -8 19 -8 14 0 -4 6 -2 11 3 11 6 0 11 -6 11 -12 0 -9 4 -8 10 2 9 13 10 13
10 0 0 -13 1 -13 10 0 8 12 10 12 10 1 0 -10 3 -11 13 -3 8 7 18 7 27 2 9 -5
19 -5 27 2 9 7 13 7 13 -1 0 -6 5 -11 11 -11 5 0 7 4 4 10 -4 6 2 7 18 1 16
-6 28 -6 36 2 8 8 11 8 11 -2 0 -10 3 -11 13 -3 8 7 18 7 27 2 9 -6 17 -5 22
3 6 9 10 8 18 -3 9 -13 10 -13 10 0 0 13 1 13 10 0 9 -13 10 -13 10 0 0 13 1
13 10 0 9 -13 10 -13 10 0 0 13 1 13 10 0 9 -13 10 -13 10 0 0 12 2 12 9 1 6
-9 10 -10 16 -2 5 9 11 9 22 0 12 -10 16 -10 24 2 8 12 10 12 18 0 8 -12 12
-12 25 -2 12 11 16 11 16 1 0 -9 4 -9 17 1 9 8 14 9 10 3 -3 -6 0 -11 8 -11 8
0 13 3 10 5 -3 3 1 12 8 20 10 13 8 15 -20 9 l-31 -6 24 26 c16 17 30 24 44
20 17 -4 19 -3 9 9 -6 7 -16 11 -22 7 -6 -3 -7 -1 -3 5 5 8 13 9 24 3 9 -4 23
-6 31 -3 9 3 11 0 7 -9 -4 -8 1 -3 12 11 11 13 20 27 20 30 0 3 0 12 1 20 1
13 2 13 11 0 11 -17 10 -21 15 73 3 53 2 57 -19 57 -16 0 -22 -6 -23 -22 -1
-13 -4 -35 -6 -51 -2 -15 -1 -27 2 -27 3 0 6 -13 6 -30 1 -34 -1 -36 -22 -15
-8 8 -20 13 -26 9 -7 -3 -3 3 9 13 25 23 29 34 13 43 -6 5 -12 26 -13 49 -1
28 -5 40 -13 36 -7 -2 -12 -1 -12 3 1 4 1 14 0 22 -1 13 -2 13 -11 0 -7 -12
-10 -12 -10 -1 0 7 -6 11 -14 8 -10 -4 -13 -1 -9 9 3 9 0 13 -8 11 -8 -2 -11
-2 -6 0 4 3 7 11 7 19 0 8 4 14 10 14 5 0 7 -6 4 -14 -3 -8 0 -17 7 -22 8 -4
10 -3 5 4 -4 6 -2 21 5 33 8 17 8 20 -1 14 -7 -4 -16 -1 -21 6 -7 11 -9 11 -9
1 0 -10 -8 -8 -28 6 -23 17 -30 18 -45 8 -9 -7 -13 -17 -9 -22 4 -4 -2 -2 -12
6 -13 10 -17 10 -12 3 4 -7 2 -13 -3 -13 -6 0 -11 6 -11 13 0 8 -4 7 -10 -3
-9 -13 -10 -13 -10 0 0 13 -1 13 -10 0 -8 -13 -10 -13 -10 0 0 11 -3 11 -12 2
-7 -7 -17 -12 -22 -12 -6 0 -4 5 4 10 11 8 9 9 -12 8 -16 -1 -28 -7 -28 -13 0
-6 -3 -6 -8 1 -4 6 -14 11 -22 11 -8 1 -27 3 -43 6 -15 3 -25 2 -22 -3 9 -14
-18 -17 -43 -4 -27 14 -65 7 -55 -10 4 -6 -1 -5 -10 3 -9 7 -28 11 -42 9 -13
-3 -22 -2 -20 2 2 4 -3 7 -11 7 -8 0 -13 -5 -11 -11 3 -7 -6 -11 -22 -10 -14
1 -26 3 -26 4 0 1 -10 3 -22 4 -13 2 -23 -2 -23 -8 0 -6 -4 -5 -9 2 -11 17
-21 17 -32 0 -5 -7 -9 -8 -9 -2 0 6 -7 11 -15 11 -8 0 -15 -5 -15 -11 0 -6 -5
-4 -10 4 -5 8 -10 11 -10 7 0 -4 -9 -3 -20 3 -16 8 -18 8 -14 -4 7 -19 -24
-15 -37 5 -7 11 -9 10 -9 -6 0 -12 -3 -16 -8 -9 -8 14 -54 13 -64 -1 -5 -7 -8
-6 -8 1 0 11 -55 12 -66 1 -4 -4 -13 -2 -21 4 -10 9 -13 8 -13 -2 0 -11 -2
-11 -10 1 -8 13 -13 13 -31 2 -11 -8 -18 -9 -14 -3 3 6 0 11 -9 11 -8 0 -17
-6 -19 -12 -4 -10 -6 -9 -6 1 -1 11 -4 11 -18 0 -11 -10 -14 -10 -9 -2 4 8 2
13 -8 13 -8 0 -18 -5 -21 -11 -5 -7 -13 -5 -25 6 -14 12 -20 13 -26 4 -5 -8
-3 -10 6 -4 9 5 11 4 6 -4 -6 -8 -12 -9 -20 -2 -9 7 -16 7 -24 -1 -8 -8 -13
-7 -18 6 -6 16 -8 16 -27 -1 -11 -10 -17 -12 -13 -5 9 15 -20 17 -29 2 -4 -7
-12 -7 -25 0 -26 14 -60 13 -60 -2 0 -10 -2 -10 -8 -1 -5 8 -13 9 -22 3 -9 -5
-19 -5 -26 1 -8 7 -14 7 -18 0 -9 -14 -37 -2 -30 13 3 6 -1 3 -9 -6 -8 -10
-18 -14 -22 -10 -5 4 -5 -1 -2 -10 3 -10 1 -20 -5 -24 -7 -4 -8 -3 -4 4 4 7 3
12 -3 12 -5 0 -12 -8 -14 -17 -3 -11 -5 -6 -6 11 -1 21 -5 27 -17 22 -8 -3
-13 -2 -10 3 3 5 -1 12 -10 15 -8 3 -12 2 -9 -3 3 -5 1 -12 -5 -16 -5 -3 -10
-2 -10 2 0 5 -11 9 -25 9 -14 0 -25 -5 -25 -10 0 -6 -4 -5 -9 3 -8 13 -12 13
-27 0 -11 -9 -15 -9 -10 -2 9 17 -6 17 -23 1 -11 -11 -12 -10 -6 0 8 16 -26
13 -37 -3 -5 -6 -8 -5 -8 2 0 7 -7 10 -15 7 -9 -4 -15 0 -16 7 0 8 -4 5 -9 -6
-5 -11 -9 -14 -9 -6 -1 11 -4 11 -18 0 -10 -9 -14 -9 -10 -2 6 9 -1 11 -24 8
-21 -2 -29 0 -26 8 3 8 -7 12 -29 12 -18 0 -30 -3 -28 -7 3 -4 1 -8 -5 -8 -5
0 -15 8 -20 18 -6 9 -11 11 -11 5 0 -8 -11 -11 -30 -9 -16 2 -27 -1 -24 -5 3
-5 0 -9 -5 -9 -6 0 -11 4 -11 9 0 5 -7 12 -16 15 -13 5 -14 4 -6 -7 9 -11 7
-13 -11 -12 -12 2 -21 8 -19 15 2 10 0 11 -10 3 -7 -6 -21 -9 -31 -8 -9 2 -15
-1 -11 -6 3 -5 0 -9 -5 -9 -6 0 -11 5 -11 12 0 6 -10 3 -22 -8 -12 -10 -19
-14 -15 -9 3 6 2 17 -4 25 -5 8 -9 10 -9 4 0 -7 -19 -10 -47 -9 -27 1 -54 -3
-60 -8 -8 -6 -13 -6 -13 0 0 13 -56 9 -73 -5 -11 -10 -20 -8 -39 7 -19 16 -24
28 -23 58 0 21 -3 46 -7 55 -4 9 -5 19 -1 21 7 5 10 436 3 462 -1 6 -1 12 0
15 6 16 4 120 -3 120 -4 0 -5 5 -1 12 10 16 11 309 1 315 -4 2 -4 10 0 16 10
17 10 417 -1 417 -5 0 -4 6 1 13 13 15 13 47 1 47 -5 0 -6 6 -2 12 5 7 9 168
10 358 0 190 2 349 3 353 0 5 6 5 12 1 8 -5 8 -1 0 13 -7 14 -7 23 1 31 9 9 9
12 0 12 -7 0 -12 5 -12 11 0 5 6 7 13 3 9 -6 9 -5 0 8 -7 8 -10 18 -7 21 3 3
2 12 -2 19 -5 7 -9 50 -10 96 0 69 2 82 14 77 11 -4 12 -2 5 7 -6 8 -7 22 -2
33 4 11 8 33 8 48 1 20 5 26 14 21 7 -5 6 -1 -3 10 -17 21 -20 68 -5 78 6 5 6
8 0 8 -6 0 -10 46 -10 119 0 66 -4 117 -8 114 -5 -3 -4 4 2 14 6 11 7 23 4 27
-3 3 -1 6 5 6 7 0 12 5 12 11 0 5 -4 8 -9 5 -4 -3 -7 8 -5 25 3 22 0 28 -9 23
-9 -6 -9 -4 -1 7 15 20 16 69 2 87 -7 9 -8 13 -2 9 6 -3 11 1 11 9 0 8 -6 13
-14 10 -11 -5 -11 -1 -2 15 6 13 7 19 1 15 -6 -4 -9 13 -8 44 1 28 -2 50 -7
50 -4 0 -5 5 -2 11 4 6 14 8 24 4 10 -4 8 1 -6 15 -13 11 -23 26 -22 33 0 9 2
9 6 0 2 -7 9 -13 15 -13 6 0 7 7 4 16 -4 10 -2 13 6 8 8 -5 9 -2 5 9 -3 10 -2
17 4 17 6 0 6 7 -1 19 -13 26 -13 34 3 25 8 -5 8 -2 -2 9 -11 14 -11 17 0 17
11 0 11 2 -1 10 -12 8 -12 10 5 10 19 1 19 1 2 11 -11 7 -16 17 -12 29 4 12 0
22 -11 28 -10 5 -19 17 -20 26 -1 9 2 14 7 10 5 -3 9 -1 9 5 0 5 -6 12 -12 14
-10 4 -10 6 0 6 10 1 9 5 -3 17 -13 14 -14 19 -3 25 10 7 10 9 -1 9 -8 0 -11
3 -8 7 4 3 1 13 -6 21 -10 13 -9 15 6 9 21 -8 22 -3 1 17 -8 9 -11 16 -6 16
14 0 7 41 -9 51 -11 7 -11 9 4 9 10 0 15 5 12 10 -4 6 -10 8 -15 5 -4 -3 -6 4
-3 15 3 11 0 20 -6 20 -6 0 -11 7 -11 16 0 9 -5 12 -12 8 -10 -6 -10 -5 -1 8
16 18 5 32 -14 17 -10 -9 -13 -8 -13 5 0 9 -6 16 -12 16 -9 0 -8 3 2 10 12 8
12 10 -2 15 -10 4 -23 3 -30 -1 -8 -5 -8 -1 2 11 9 11 10 16 3 11 -8 -4 -13
-2 -13 6 0 10 -3 9 -10 -2 -8 -12 -10 -12 -16 3 -3 9 -11 14 -17 10 -17 -11
-67 -11 -67 -1 0 6 -7 5 -16 -3 -9 -7 -18 -9 -22 -3 -9 12 -35 12 -44 -1 -5
-6 -12 -4 -18 5 -9 13 -10 13 -10 0 0 -9 -3 -11 -8 -5 -8 13 -22 13 -41 1 -8
-5 -16 -4 -22 5 -8 12 -11 12 -19 -1 -9 -13 -11 -13 -20 0 -9 13 -10 13 -10 0
0 -13 -1 -13 -11 0 -7 10 -12 11 -15 3 -4 -7 -14 -9 -34 -3 -18 5 -32 4 -39
-3 -8 -8 -11 -8 -11 1 0 8 -7 9 -25 2 -16 -6 -25 -6 -25 1 0 6 -8 5 -22 -2
-17 -9 -23 -9 -26 0 -3 9 -8 9 -20 -1 -12 -10 -14 -10 -8 -1 5 10 1 11 -17 4
-13 -5 -30 -5 -37 -1 -8 5 -21 5 -30 0 -9 -5 -22 -5 -30 0 -8 5 -22 4 -32 -1
-13 -7 -18 -6 -18 3 0 9 -3 9 -11 1 -8 -8 -20 -8 -35 -3 -15 6 -24 5 -28 -3
-5 -9 -7 -9 -12 1 -3 6 -10 12 -15 12 -6 0 -7 -5 -3 -11 4 -7 -1 -7 -16 1 -15
8 -20 8 -16 1z m-74 -75 c0 -3 -4 -8 -10 -11 -5 -3 -10 -1 -10 4 0 6 5 11 10
11 6 0 10 -2 10 -4z m391 -339 c-10 -9 -11 -8 -5 6 3 10 9 15 12 12 3 -3 0
-11 -7 -18z m-22 10 c-2 -1 -13 -9 -24 -17 -19 -14 -19 -14 -6 3 7 9 18 17 24
17 6 0 8 -1 6 -3z m741 -37 c0 -5 -2 -10 -4 -10 -3 0 -8 5 -11 10 -3 6 -1 10
4 10 6 0 11 -4 11 -10z m-5 -3600 c3 -5 1 -10 -4 -10 -6 0 -11 5 -11 10 0 6 2
10 4 10 3 0 8 -4 11 -10z m94 -3 c-2 -1 -13 -9 -24 -17 -19 -14 -19 -14 -6 3
7 9 18 17 24 17 6 0 8 -1 6 -3z m261 -3 c0 -8 -19 -13 -24 -6 -3 5 1 9 9 9 8
0 15 -2 15 -3z m2140 -310 c0 -3 -6 -11 -13 -18 -14 -14 -49 -18 -41 -4 3 5
10 6 15 3 5 -4 12 1 15 9 6 15 24 23 24 10z m-3658 -743 c8 11 9 11 6 1 -4
-16 -22 -18 -24 -2 -2 7 -1 6 3 -1 4 -8 8 -7 15 2z m1518 -63 c0 -14 -15 -16
-27 -3 -10 11 -9 13 7 12 11 -1 20 -5 20 -9z m-1297 -31 c7 3 8 2 4 -3 -12
-12 -30 -12 -39 1 -14 19 -8 27 8 11 8 -9 21 -13 27 -9z m474 8 c0 -8 -4 -12
-9 -9 -5 3 -6 10 -3 15 9 13 12 11 12 -6z m89 -22 c-3 -4 -6 -1 -6 6 0 7 -5 9
-10 6 -6 -4 -8 -9 -6 -13 2 -4 -7 -8 -21 -9 -17 -1 -21 2 -13 7 9 6 8 10 -6
19 -16 9 -13 10 14 5 23 -5 32 -3 32 7 1 9 4 8 11 -4 6 -10 8 -21 5 -24z m40
25 c-10 -6 -22 -6 -26 -2 -5 5 3 10 18 11 22 1 24 0 8 -9z m-566 -8 c0 -5 -2
-10 -4 -10 -3 0 -8 5 -11 10 -3 6 -1 10 4 10 6 0 11 -4 11 -10z m1190 -4 c0
-11 -19 -15 -25 -6 -3 5 1 10 9 10 9 0 16 -2 16 -4z m366 -18 c12 -14 13 -18
3 -10 -9 6 -18 10 -21 7 -2 -3 -5 2 -5 10 0 19 0 19 23 -7z"/>
<path d="M1820 6589 c0 -5 5 -7 10 -4 6 3 10 8 10 11 0 2 -4 4 -10 4 -5 0 -10
-5 -10 -11z"/>
<path d="M1890 6595 c0 -5 5 -17 10 -25 5 -8 10 -10 10 -5 0 6 -5 17 -10 25
-5 8 -10 11 -10 5z"/>
<path d="M1706 6558 c3 -5 10 -6 15 -3 13 9 11 12 -6 12 -8 0 -12 -4 -9 -9z"/>
<path d="M7256 5742 c-3 -5 1 -9 9 -9 8 0 12 4 9 9 -3 4 -7 8 -9 8 -2 0 -6 -4
-9 -8z"/>
<path d="M7206 3989 c6 -8 10 -23 7 -34 -4 -18 -4 -58 -1 -92 1 -7 5 -13 10
-13 5 0 6 -5 3 -10 -4 -6 -12 -7 -18 -4 -8 4 -7 2 1 -7 11 -12 14 -12 22 1 5
8 7 17 5 21 -3 3 -6 27 -9 52 -3 34 -1 45 7 40 7 -4 7 0 -1 9 -10 13 -10 17 0
20 8 3 4 10 -12 18 -21 11 -23 11 -14 -1z"/>
<path d="M7174 3880 c0 -13 4 -16 10 -10 7 7 7 13 0 20 -6 6 -10 3 -10 -10z"/>
<path d="M7176 3815 c-9 -26 -7 -32 5 -12 6 10 9 21 6 23 -2 3 -7 -2 -11 -11z"/>
<path d="M7214 3780 c2 -16 0 -32 -5 -36 -5 -3 -6 -11 -2 -17 4 -6 7 -24 8
-40 1 -21 -2 -27 -14 -22 -15 5 -15 4 0 -7 12 -10 15 -29 13 -80 -1 -38 1 -68
5 -68 4 0 7 24 6 53 0 28 4 55 10 59 7 5 7 8 -1 8 -6 0 -9 32 -8 90 2 54 -1
90 -7 90 -6 0 -8 -13 -5 -30z"/>
<path d="M7173 3767 c0 -8 6 -14 14 -14 9 0 10 4 2 14 -6 7 -12 13 -14 13 -1
0 -2 -6 -2 -13z"/>
<path d="M7170 3699 c0 -5 5 -7 10 -4 6 3 10 8 10 11 0 2 -4 4 -10 4 -5 0 -10
-5 -10 -11z"/>
<path d="M7133 3649 c-2 -23 3 -25 10 -4 4 8 3 16 -1 19 -4 3 -9 -4 -9 -15z"/>
<path d="M7169 3613 c-10 -11 -10 -14 -1 -9 6 4 12 2 12 -3 0 -6 -5 -11 -11
-11 -6 0 -9 -6 -6 -14 4 -10 -1 -12 -16 -9 -18 5 -20 3 -9 -8 6 -7 12 -19 12
-27 0 -8 -5 -10 -12 -6 -10 6 -10 4 0 -7 15 -16 16 -33 0 -23 -7 5 -8 3 -2 -7
12 -20 16 -51 5 -45 -5 4 -8 -1 -7 -11 3 -16 34 -34 47 -27 8 4 5 -129 -4
-142 -7 -11 18 -27 31 -21 4 2 17 -7 29 -20 l22 -23 -22 -15 c-12 -8 -16 -15
-9 -15 8 0 10 -5 6 -12 -4 -8 -3 -10 2 -5 5 5 9 14 9 20 0 5 7 12 15 14 9 3
11 1 5 -4 -15 -12 -12 -39 4 -35 8 2 11 -3 8 -12 -4 -9 -2 -18 3 -21 6 -4 10
1 10 10 0 9 5 13 10 10 6 -3 10 2 11 12 0 10 1 37 2 60 1 23 0 39 -2 37 -2 -2
-12 3 -22 12 -10 9 -27 14 -38 11 -12 -3 -22 1 -25 9 -4 9 2 14 17 15 17 1 18
2 5 6 -10 2 -18 14 -19 26 0 12 -1 39 -2 60 -1 20 3 39 8 41 6 3 6 5 -1 5 -6
1 -9 17 -8 37 3 32 1 36 -16 31 -22 -6 -22 -5 -21 76 0 31 -1 57 -3 57 -2 0
-10 -8 -17 -17z m47 -142 c0 -15 -3 -17 -18 -8 -13 8 -14 13 -5 19 18 12 23
10 23 -11z m73 -247 c-15 -19 -28 -9 -22 16 4 16 8 18 19 9 11 -9 11 -15 3
-25z"/>
<path d="M7250 3379 c0 -5 5 -7 10 -4 6 3 10 8 10 11 0 2 -4 4 -10 4 -5 0 -10
-5 -10 -11z"/>
<path d="M7256 3342 c-2 -4 -1 -14 4 -22 7 -11 9 -9 7 8 -1 24 -3 26 -11 14z"/>
<path d="M7135 3321 c-3 -5 -2 -12 3 -15 5 -3 9 1 9 9 0 17 -3 19 -12 6z"/>
<path d="M7196 3219 c3 -5 9 -7 14 -4 5 3 11 -3 14 -12 4 -15 5 -15 3 1 -1 11
-10 20 -20 22 -9 1 -15 -2 -11 -7z"/>
<path d="M7334 3140 c0 -27 3 -50 7 -50 4 0 7 23 6 50 0 28 -3 50 -6 50 -4 0
-7 -22 -7 -50z"/>
<path d="M5756 2577 c3 -10 9 -15 12 -12 3 3 0 11 -7 18 -10 9 -11 8 -5 -6z"/>
<path d="M6155 2540 c-3 -5 -8 -19 -10 -29 -3 -18 -1 -19 21 -9 27 13 32 28 8
28 -8 0 -12 5 -9 10 3 6 4 10 1 10 -3 0 -8 -4 -11 -10z"/>
<path d="M6190 2326 c0 -2 7 -7 16 -10 8 -3 12 -2 9 4 -6 10 -25 14 -25 6z"/>
<path d="M6135 2230 c-3 -5 -1 -10 4 -10 6 0 11 5 11 10 0 6 -2 10 -4 10 -3 0
-8 -4 -11 -10z"/>
<path d="M2490 1496 c0 -2 8 -10 18 -17 15 -13 16 -12 3 4 -13 16 -21 21 -21
13z"/>
<path d="M3855 1430 c-3 -5 -1 -10 4 -10 6 0 11 5 11 10 0 6 -2 10 -4 10 -3 0
-8 -4 -11 -10z"/>
<path d="M3718 1411 c-16 -16 -15 -17 12 -16 16 0 33 5 37 9 4 5 3 6 -4 2 -6
-3 -15 0 -20 7 -7 12 -11 11 -25 -2z"/>
<path d="M1670 680 c0 -5 5 -10 11 -10 5 0 7 5 4 10 -3 6 -8 10 -11 10 -2 0
-4 -4 -4 -10z"/>
<path d="M6111 602 c-17 -31 -13 -40 5 -14 9 13 14 26 11 29 -3 2 -10 -4 -16
-15z"/>
</g>
</svg>
