<?xml version="1.0" standalone="no"?>
<!DOCTYPE svg PUBLIC "-//W3C//DTD SVG 20010904//EN"
 "http://www.w3.org/TR/2001/REC-SVG-20010904/DTD/svg10.dtd">
<svg version="1.0" xmlns="http://www.w3.org/2000/svg"
 width="612.000000pt" height="612.000000pt" viewBox="0 0 612.000000 612.000000"
 preserveAspectRatio="xMidYMid meet">
<metadata>
Created by potrace 1.14, written by Peter Selinger 2001-2017
</metadata>
<g transform="translate(0.000000,612.000000) scale(0.100000,-0.100000)"
fill="#000000" stroke="none">
<path d="M2292 4272 c-7 -9 -10 -11 -6 -3 4 9 3 12 -3 8 -13 -8 -24 -47 -14
-47 11 0 7 -74 -4 -82 -6 -5 -6 -8 1 -8 14 0 14 -30 0 -30 -6 0 -5 -4 2 -9 8
-4 14 -12 14 -16 0 -4 -6 -12 -14 -16 -7 -5 -8 -9 -2 -9 14 0 14 -30 0 -30 -6
0 -5 -4 2 -9 8 -4 14 -12 14 -16 0 -4 -6 -12 -14 -16 -7 -5 -8 -9 -2 -9 14 0
14 -30 0 -30 -6 0 -5 -4 2 -9 17 -11 17 -21 0 -32 -7 -5 -8 -9 -3 -9 12 0 13
-189 1 -209 -6 -9 -5 -12 1 -8 7 4 10 -6 9 -28 0 -19 2 -35 7 -35 4 0 8 3 9 8
3 12 26 32 38 32 6 0 9 4 6 9 -3 5 1 12 10 15 8 3 12 10 9 16 -3 5 -1 10 4 10
6 0 31 20 55 44 25 24 47 41 50 38 4 -3 6 0 6 7 0 14 30 47 31 34 0 -4 4 2 10
15 5 13 13 21 18 18 5 -3 14 8 21 24 7 16 16 27 21 24 5 -3 12 2 15 10 3 9 10
13 15 10 5 -3 9 0 9 7 0 14 167 178 175 171 3 -3 5 0 5 7 0 16 46 62 54 54 3
-4 6 1 6 11 0 9 4 15 9 12 5 -3 11 4 14 15 3 12 10 18 16 14 6 -3 11 1 11 10
0 9 5 13 10 10 6 -3 10 -3 11 2 0 4 2 16 4 26 3 13 0 15 -9 8 -9 -7 -16 -7
-26 2 -8 7 -11 8 -7 1 4 -7 -2 -14 -13 -17 -11 -3 -19 -2 -18 2 2 20 -4 22
-18 5 -8 -10 -13 -14 -10 -8 3 7 -1 15 -10 18 -8 3 -12 2 -9 -4 3 -6 1 -10 -4
-10 -6 0 -11 6 -11 13 0 7 -3 8 -8 2 -10 -15 -46 -19 -37 -5 4 7 -5 4 -21 -6
-15 -11 -25 -14 -21 -7 4 6 3 14 -3 18 -5 3 -10 1 -10 -5 0 -7 -6 -10 -12 -7
-7 2 -25 0 -41 -4 -17 -5 -25 -4 -21 2 3 6 -4 7 -19 4 -14 -4 -28 -2 -31 4 -4
5 -13 8 -21 5 -8 -4 -12 -10 -9 -15 3 -5 -2 -6 -10 -3 -9 3 -13 10 -10 15 3 5
-2 6 -10 3 -9 -3 -14 -9 -12 -13 2 -3 -11 -6 -29 -6 -18 0 -31 3 -29 6 2 4 -3
10 -12 13 -10 4 -13 2 -8 -6 5 -8 2 -9 -9 -5 -10 3 -17 2 -17 -3 0 -6 -5 -10
-11 -10 -5 0 -8 4 -4 9 3 5 1 12 -5 16 -5 3 -10 1 -10 -5 0 -12 -41 -10 -50 2
-3 4 -11 -1 -18 -10z"/>
<path d="M2931 3752 c-1 -16 -58 -72 -65 -65 -3 3 -8 -2 -12 -11 -6 -16 -194
-209 -194 -199 0 3 -9 -5 -19 -18 -42 -53 -219 -227 -225 -222 -3 4 -6 2 -6
-4 0 -11 -118 -133 -129 -133 -4 0 -7 -93 -6 -206 0 -113 -3 -208 -8 -211 -4
-2 -4 -9 0 -16 9 -15 10 -218 0 -224 -4 -2 -3 -12 1 -21 4 -9 7 -142 7 -295
-1 -153 2 -280 7 -283 4 -3 8 0 8 7 0 7 8 5 22 -7 12 -10 18 -13 13 -5 -6 10
3 12 44 10 28 -2 53 0 55 6 3 6 5 5 5 -2 1 -8 10 -9 30 -3 16 4 32 6 35 3 10
-11 206 -8 206 2 0 7 3 7 8 0 9 -12 62 -14 62 -2 0 4 5 5 11 1 18 -10 119 -10
119 1 0 7 3 7 8 0 9 -12 62 -14 62 -3 0 5 9 4 20 -2 14 -8 20 -8 20 0 0 7 5 8
13 3 6 -4 20 -6 30 -5 10 2 25 -2 33 -9 12 -9 13 -9 9 2 -4 12 3 14 35 11 26
-3 38 -8 34 -16 -3 -6 2 -2 10 8 9 11 16 15 16 10 0 -6 14 -9 31 -6 25 4 30 2
25 -9 -4 -8 0 -5 8 5 9 11 16 16 16 10 0 -5 29 -8 65 -7 36 2 64 -1 61 -6 -3
-4 1 -8 8 -8 8 0 12 7 8 15 -4 11 -1 13 7 7 15 -9 111 -13 111 -5 0 3 27 3 60
0 33 -3 60 -2 60 3 0 4 6 5 13 0 6 -4 20 -6 30 -5 10 2 25 -2 33 -9 12 -10 13
-9 9 3 -5 12 1 14 27 10 18 -2 39 -9 46 -15 9 -7 11 -6 6 6 -5 14 -1 15 25 7
17 -5 31 -6 31 -2 0 4 37 6 83 4 l82 -4 0 289 0 288 -168 0 c-92 0 -167 4
-167 8 0 5 -5 5 -10 2 -9 -5 -276 -9 -305 -4 -5 1 -14 1 -20 0 -11 -3 -286 -3
-300 0 -5 1 -14 0 -20 -1 -17 -4 -98 1 -107 6 -5 3 -4 12 3 20 9 11 9 14 -1
14 -10 0 -10 4 1 16 10 13 10 17 0 24 -9 5 -10 13 -5 21 12 20 14 39 3 39 -5
0 -4 12 2 27 7 19 6 28 -2 34 -7 4 -8 12 -3 20 11 19 13 58 2 65 -4 3 -5 11
-1 17 11 18 11 51 0 58 -5 4 -6 13 -1 20 11 19 13 58 2 65 -4 3 -5 11 -1 17
12 20 12 37 0 37 -7 0 -5 5 3 10 11 7 11 10 2 10 -8 0 -10 5 -6 12 11 18 12
48 2 54 -4 3 -3 14 3 25 7 14 7 24 0 33 -6 7 -8 16 -4 20 10 10 11 46 1 46 -5
0 -4 9 2 20 8 14 8 20 0 20 -7 0 -8 6 -2 17 5 9 6 29 2 44 -5 15 -6 30 -3 32
9 9 10 57 2 57 -5 0 -4 12 1 26 7 18 7 30 0 39 -5 6 -7 15 -3 19 11 10 12 36
2 36 -5 0 -4 11 1 25 6 16 6 25 0 25 -6 0 -6 9 0 24 6 17 5 26 -3 30 -8 3 -7
5 2 5 11 1 10 4 -4 14 -14 11 -15 16 -5 22 9 6 11 4 5 -6 -5 -8 -4 -11 0 -6
11 9 14 47 5 47 -4 0 -6 10 -4 23 10 62 11 74 3 92 -4 11 -8 14 -8 7z"/>
<path d="M2675 1464 c-8 -12 -15 -13 -38 -5 -16 6 -26 7 -23 2 3 -5 -29 -9
-72 -9 -161 -2 -163 -2 -156 -15 5 -9 3 -9 -7 1 -7 6 -19 12 -27 12 -8 0 -10
-5 -6 -12 6 -10 4 -10 -8 0 -9 7 -19 9 -22 4 -3 -5 -22 -8 -43 -7 -21 1 -48
-2 -60 -6 -12 -5 -24 -5 -27 -1 -3 5 -21 6 -40 4 -20 -2 -33 -8 -30 -14 3 -5
-5 -8 -18 -7 -49 4 -68 -1 -68 -19 0 -15 7 -18 34 -17 19 2 39 6 45 9 7 5 8 1
4 -10 -4 -11 -3 -15 5 -10 6 3 13 2 17 -4 4 -7 12 -7 25 0 22 12 33 13 27 3
-8 -13 86 -13 102 0 14 11 14 10 2 -5 -12 -16 -11 -18 18 -14 17 2 34 0 36 -4
6 -9 25 -8 42 3 6 4 14 1 16 -5 4 -10 8 -9 16 2 9 12 11 13 11 1 0 -8 3 -11 6
-8 4 3 16 2 27 -4 10 -6 17 -7 14 -2 -3 5 12 9 33 9 21 0 37 -3 34 -7 -2 -4 1
-11 7 -15 7 -4 9 -3 6 3 -4 6 0 13 8 17 8 3 19 -3 24 -12 7 -11 11 -12 11 -4
0 15 41 13 52 -3 5 -6 8 -5 8 2 0 7 7 10 17 6 11 -4 14 -3 9 5 -5 8 -2 10 8 6
9 -3 13 -11 9 -17 -4 -6 -1 -7 8 -1 20 12 39 14 39 3 0 -6 5 -7 10 -4 6 4 7
12 3 18 -4 7 4 5 18 -4 18 -12 30 -14 42 -7 12 6 17 5 17 -4 0 -8 3 -9 8 -3
11 16 34 17 43 3 7 -10 9 -10 9 1 0 11 3 11 15 1 8 -7 15 -8 15 -3 0 11 29 11
48 -1 7 -4 12 -2 12 4 0 7 6 8 18 2 19 -9 59 -8 69 2 3 3 12 1 20 -5 10 -9 13
-8 13 1 0 10 3 10 15 0 12 -10 15 -10 15 0 0 10 3 10 15 0 8 -7 15 -8 15 -3 0
11 29 11 48 -1 7 -4 12 -2 12 4 0 7 6 8 18 2 19 -9 59 -8 69 2 3 3 12 1 20 -5
10 -9 13 -8 13 1 0 10 3 10 15 0 12 -10 15 -10 15 0 0 10 3 10 15 0 8 -7 15
-8 15 -3 0 9 22 10 55 3 6 -1 12 -2 15 -1 22 9 90 8 84 0 -3 -6 3 -5 14 2 17
11 24 10 38 -2 16 -12 17 -12 11 4 -4 12 -3 16 4 11 6 -4 37 -6 68 -4 31 1 76
3 101 4 25 1 51 5 58 9 6 5 12 4 12 -1 0 -6 11 -9 24 -8 13 0 22 4 20 7 -2 3
10 6 26 5 17 -1 30 -5 30 -10 0 -5 7 -3 15 4 9 7 18 10 22 7 3 -4 15 -2 26 4
13 8 17 8 13 1 -4 -6 2 -10 13 -9 11 0 17 5 15 9 -3 5 8 6 25 3 20 -3 31 -1
31 6 0 8 4 8 14 0 11 -9 16 -9 21 0 6 8 10 7 16 -2 6 -9 9 -10 9 -2 0 6 11 10
25 9 13 -2 22 1 19 6 -3 5 10 7 29 5 32 -4 34 -2 24 14 -7 11 -16 20 -22 20
-5 1 -21 3 -34 4 -13 1 -27 9 -32 16 -7 11 -9 9 -10 -6 0 -19 -1 -19 -8 -1 -5
14 -10 16 -15 8 -4 -7 -13 -9 -19 -5 -7 4 -37 8 -67 9 -30 0 -62 4 -71 8 -9 4
-68 8 -130 9 -63 1 -120 6 -128 11 -10 6 -12 5 -7 -2 8 -13 -28 -12 -40 1 -4
3 -15 2 -25 -4 -11 -5 -19 -6 -19 -1 0 10 -36 9 -46 -1 -4 -4 -12 -7 -18 -7
-6 0 -4 5 4 11 11 8 0 9 -42 6 -34 -2 -55 0 -51 6 3 5 -4 4 -16 -2 -11 -7 -21
-8 -21 -4 0 4 -5 1 -10 -7 -8 -12 -10 -12 -11 5 0 11 -3 15 -5 9 -2 -6 -19 -8
-36 -6 -24 4 -29 2 -24 -9 5 -10 3 -9 -6 1 -15 17 -40 20 -50 5 -5 -7 -8 -7
-8 0 0 6 -33 10 -80 10 -44 0 -80 -4 -80 -8 0 -5 -5 -5 -11 -1 -18 11 -229 10
-229 -1 0 -7 -3 -7 -8 0 -10 15 -35 12 -50 -5 -8 -8 -11 -9 -7 -2 5 9 -2 12
-22 10 -16 -1 -35 2 -42 7 -10 5 -12 4 -7 -3 4 -7 2 -12 -3 -12 -6 0 -11 6
-11 13 -1 7 -6 5 -14 -6 -11 -14 -15 -15 -19 -5 -4 10 -8 10 -16 -2 -8 -12
-11 -12 -11 -1 0 11 -3 11 -15 1 -13 -11 -14 -10 -9 4 8 20 2 21 -11 0z"/>
</g>
</svg>
